<?xml version="1.0" encoding="utf-8"?>
<!-- Generator: Adobe Illustrator 18.1.1, SVG Export Plug-In . SVG Version: 6.00 Build 0)  -->
<svg version="1.1" id="Layer_1" xmlns="http://www.w3.org/2000/svg" xmlns:xlink="http://www.w3.org/1999/xlink" x="0px" y="0px"
	 viewBox="0 0 180 180" enable-background="new 0 0 180 180" xml:space="preserve">
<g>
	<g>
		<defs>
			<rect id="SVGID_25_" x="309" y="-1783.3" width="1263" height="4920.1"/>
		</defs>
		<clipPath id="SVGID_2_">
			<use xlink:href="#SVGID_25_"  overflow="visible"/>
		</clipPath>
		<g clip-path="url(#SVGID_2_)">
			<g>
			</g>
		</g>
	</g>
</g>
<g>
	<g>
		<rect x="-977.2" y="-1072.9" fill="#FFFFFF" stroke="#CCCCCC" stroke-miterlimit="10" width="1266" height="3617"/>
	</g>
	<g>
		<g>
			<g>
				<g>
					<path fill="#999999" d="M55.5,110.2c0,5.5,0,11,0,16.5c0,1.1,0.9,2,1.7,2.1c0.3,0.1,0.5,0.1,0.8,0.1c2.7,0,5.4,0,8.1-0.1
						c1.4,0,2.1-0.8,2.1-2.2c0-0.5,0-1.1,0-1.6c0-10.3,0-20.5,0-30.8c0-0.3,0-0.6,0-0.9c-0.1-1.1-0.8-1.9-1.9-1.9
						c-2.9,0-5.8-0.1-8.6,0c-1.4,0-2.2,0.9-2.2,2.4C55.5,99.3,55.5,104.8,55.5,110.2z"/>
					<path fill="#999999" d="M116.6,93.1c-0.5-0.4-0.8-0.7-1.2-1c-1.4-1.1-2.7-2.3-4.1-3.4c-0.6-0.5-1-1.2-0.8-2.1
						c0.2-0.8,0.7-1.3,1.5-1.4c0.5-0.1,1.2,0,1.6,0.3c3.1,2.5,6.3,5.1,9.3,7.7c1,0.8,0.9,2.1-0.1,3c-2.7,2.3-5.3,4.6-8,6.9
						c-0.6,0.5-1.1,1.2-2,1.2c-1,0-1.7-0.4-2-1.2c-0.3-0.8,0-1.7,0.7-2.3c1.3-1.2,2.6-2.3,4.1-3.6c-0.3,0-0.4,0-0.5,0
						c-12.4,0.3-24-2.9-34.8-8.9C74.5,85,69,81.1,64.2,76.3c-2.3-2.2-4.3-4.6-6-7.3c-0.3-0.5-0.5-1.2-0.6-1.8c0-0.8,0.7-1.5,1.4-1.7
						c0.8-0.2,1.6,0.1,2.1,0.8c0.7,0.9,1.4,1.9,2.1,2.9c2.4,3.2,5.4,5.9,8.6,8.4c7.2,5.8,15.2,10.3,24.1,12.9
						c6.4,1.9,12.9,2.9,19.6,2.6C115.8,93.2,116.1,93.1,116.6,93.1z"/>
					<path fill="#999999" d="M74,116.5c0,3.3,0,6.6,0,9.9c0,1.8,0.7,2.5,2.5,2.6c2.6,0,5.2,0,7.9,0c1.7,0,2.4-0.8,2.4-2.4
						c0-6.7,0-13.5,0-20.2c0-1.6-0.9-2.4-2.5-2.4c-2.6,0-5.2,0-7.9,0c-1.7,0-2.5,0.8-2.5,2.5C74,109.7,74,113.1,74,116.5z"/>
					<path fill="#999999" d="M92.4,120.4c0,2,0,4,0,6.1c0,1.7,0.7,2.5,2.4,2.5c2.7,0,5.4,0,8.1,0c1.5,0,2.3-0.8,2.3-2.3
						c0-4.1,0-8.3,0-12.4c0-1.6-0.8-2.4-2.4-2.4c-2.6,0-5.2,0-7.9,0c-1.7,0-2.5,0.8-2.5,2.6C92.4,116.4,92.4,118.4,92.4,120.4
						C92.4,120.4,92.4,120.4,92.4,120.4z"/>
					<path fill="#999999" d="M123.6,121.7c0-1.6,0-3.2,0-4.9c0-1.2-0.8-2-1.9-2.2c-0.3,0-0.5-0.1-0.8-0.1c-2.5,0-5,0-7.6,0
						c-1.8,0-2.5,0.8-2.5,2.6c0,3.1,0,6.1,0,9.2c0,1.8,0.7,2.6,2.5,2.6c2.5,0,5.1,0,7.6,0c0.4,0,0.9-0.1,1.3-0.2
						c0.8-0.4,1.4-1,1.4-2C123.6,125.1,123.6,123.4,123.6,121.7C123.6,121.7,123.6,121.7,123.6,121.7z"/>
					<path fill="#999999" d="M93.5,53.8c0,1.6,0,3,0,4.5c0,0.8-0.2,1.7,0.1,2.3c0.3,0.6,1.2,0.9,1.8,1.4c0.6,0.4,1.2,0.9,1.7,1.4
						c3.1,2.8,1.8,7.2-1.3,8.7c-0.7,0.3-1.4,0.5-2.2,0.8c0,0.5,0,1.1,0,1.6c0,0.7-0.4,1.2-1,1.2c-0.6,0-0.9-0.4-1-1.2
						c0-0.3,0-0.6,0-0.9c0-0.3,0-0.5,0-0.8c-1.7-0.1-3.2-0.6-4.5-1.5c-0.4-0.3-0.7-0.6-1-1c-0.3-0.4-0.4-0.9,0-1.3
						c0.4-0.4,0.8-0.3,1.2,0c0.8,0.5,1.5,1,2.3,1.4c0.6,0.3,1.3,0.4,2,0.6c0-0.3,0.1-0.5,0.1-0.6c0-2.5,0-5,0.1-7.6
						c0-0.6-0.2-0.8-0.6-1.1c-1-0.7-2-1.3-2.9-2.2c-2.4-2.2-1.9-5.5,1-7c0.6-0.3,1.2-0.5,1.9-0.6c0.4-0.1,0.6-0.2,0.5-0.6
						c0-0.4,0-0.7,0-1.1c0.1-0.5,0.3-1,0.9-1c0.6,0,0.9,0.3,1,0.9c0.1,0.4,0.1,0.8,0.1,1.2c0,0.4,0.1,0.5,0.5,0.6
						c0.9,0.2,1.8,0.5,2.7,0.9c0.3,0.1,0.5,0.3,0.7,0.6c0.4,0.4,0.5,0.9,0.2,1.4c-0.3,0.5-0.8,0.4-1.3,0.2c-0.7-0.3-1.5-0.7-2.2-1
						C94.1,53.9,93.9,53.9,93.5,53.8z M93.6,70.8c1.5-0.1,2.9-1.5,3.1-3c0.3-1.9-1-3.8-3.1-4.5C93.6,65.8,93.6,68.3,93.6,70.8z
						 M91.7,53.7C91,54,90.5,54.1,90,54.4c-1,0.6-1.4,1.7-0.9,2.7c0.5,1.2,1.6,1.9,2.7,2.6C91.7,57.7,91.7,55.8,91.7,53.7z"/>
				</g>
				<circle fill="none" stroke="#54A4DB" stroke-width="3" stroke-miterlimit="10" cx="89.6" cy="89.2" r="83.3"/>
			</g>
		</g>
	</g>
	<rect x="-977.2" y="-1552" fill="none" width="1262" height="4362.5"/>
</g>
</svg>
