<?xml version="1.0" encoding="utf-8"?>
<!-- Generator: Adobe Illustrator 18.1.1, SVG Export Plug-In . SVG Version: 6.00 Build 0)  -->
<svg version="1.1" id="Layer_1" xmlns="http://www.w3.org/2000/svg" xmlns:xlink="http://www.w3.org/1999/xlink" x="0px" y="0px"
	 viewBox="0 0 180 180" enable-background="new 0 0 180 180" xml:space="preserve">
<g>
	<g>
		<rect x="-143.3" y="-1072.9" fill="#FFFFFF" stroke="#CCCCCC" stroke-miterlimit="10" width="1266" height="3617"/>
	</g>
	<g>
	</g>
	<g>
		<g>
			<g>
				<path fill="#999999" stroke="#999999" stroke-miterlimit="10" d="M101.3,99.4c0.3,0.2,0.5,0.3,0.7,0.4
					c5.6,5.6,11.2,11.1,16.8,16.7c0.1,0.1,0.2,0.2,0.3,0.3c0.4,0.3,0.7,0.7,0.2,1.2c-0.4,0.4-0.8,0.1-1.2-0.2
					c-5.7-5.7-11.3-11.3-17-17c-0.2-0.2-0.3-0.4-0.5-0.6c-5.8,4.8-12.3,6.7-19.7,5.4c-5.8-1.1-10.5-4.1-14-8.8
					c-7-9.4-5.6-22.7,3.1-30.5c8.7-7.8,22.2-7.7,30.8,0.2c3.1,2.8,5.2,6.3,6.4,10.3c1.2,4,1.3,8,0.2,12.1
					C106.4,92.8,104.4,96.3,101.3,99.4z M85.3,61.7c-12.1,0.1-21.6,9.6-21.6,21.6c0,11.9,9.7,21.5,21.7,21.4
					c11.9,0,21.5-9.7,21.4-21.6C106.7,71.2,97.1,61.6,85.3,61.7z"/>
			</g>
		</g>
		<circle fill="none" stroke="#BFD4DB" stroke-width="3" stroke-miterlimit="10" cx="90.9" cy="89.3" r="83.3"/>
	</g>
	<rect x="-143.3" y="-1552" fill="none" width="1262" height="4362.5"/>
</g>
</svg>
