<?xml version="1.0" encoding="utf-8"?>
<!-- Generator: Adobe Illustrator 18.1.1, SVG Export Plug-In . SVG Version: 6.00 Build 0)  -->
<svg version="1.1" id="Layer_1" xmlns="http://www.w3.org/2000/svg" xmlns:xlink="http://www.w3.org/1999/xlink" x="0px" y="0px"
	 viewBox="0 0 180 180" enable-background="new 0 0 180 180" xml:space="preserve">
<g>
	<g>
		<rect x="-559" y="-1072.9" fill="#FFFFFF" stroke="#CCCCCC" stroke-miterlimit="10" width="1266" height="3617"/>
	</g>
	<g>
		<g>
			<g>
				<path fill="#BFD4DB" d="M79.6,6.1C38.5,11.4,6.7,46.5,6.7,89c0,46.5,37.4,83.9,83.8,83.8c27,0,51-12.7,66.3-32.5
					c0,0-3.3-2.4-3.3-2.4c-14.6,18.8-37.5,30.9-63.1,30.9c-44.1-0.1-79.6-35.7-79.6-79.8c0-41.8,31.9-75.9,72.8-79.4l-0.6-4
					C81.8,5.8,80.7,5.9,79.6,6.1"/>
				<path fill="#BFD4DB" d="M169.6,76.6c0.6,4.1,1,8.2,1,12.5c0,44.1-35.4,79.7-79.6,79.8c-25.6,0.1-48.5-12-63.1-30.9
					c0,0-3.3,2.4-3.3,2.4c15.3,19.8,39.3,32.5,66.3,32.5c46.4,0,83.8-37.4,83.8-83.8c0-4.1-0.3-8.1-0.9-12"/>
				<path fill="#999999" d="M92.1,93.2c0.1-10.6,0.1-23,0.1-33.6c0-10.6,0-21.2,0-31.8c0-0.7,0.2-1.5-0.1-2
					c-0.4-0.7-1.1-1.5-1.8-1.6c-0.5-0.1-1.4,0.7-1.8,1.3c-0.3,0.4-0.3,1.2-0.3,1.8c0,21.6,0,44.7,0,66.4c2.4,2.6,4,3.5,6.3,2.6
					c12.3-4.8,24.6-9.5,36.9-14.2c1.5-0.6,2.6-1.4,2-3.2c-0.7-1.9-2.1-1.5-3.5-0.9c-11.6,4.5-23.2,9-34.7,13.6
					c-1.6,0.6-2.8,0.6-4.3-0.5"/>
				<path fill="#999999" d="M92.5,145.8c0,1.5,0.2,3.1-0.1,4.5c-0.2,0.8-1.3,1.4-1.9,2.2c-0.7-0.7-1.9-1.4-1.9-2.1
					c-0.2-3.1-0.2-6.1,0-9.2c0.1-0.8,1.2-1.5,1.9-2.2c0.7,0.7,1.8,1.4,1.9,2.2C92.7,142.6,92.5,144.2,92.5,145.8z"/>
				<path fill="#54A4DB" d="M93.7,5.8c37.7,1.5,69,27.8,77.9,63.1l-4.1,0c-9-34-40-59-76.9-59.1l-0.1-4C91.6,5.7,92.6,5.7,93.7,5.8z
					"/>
			</g>
		</g>
	</g>
	<rect x="-559" y="-1552" fill="none" width="1262" height="4362.5"/>
</g>
</svg>
