<?xml version="1.0" encoding="utf-8"?>
<!-- Generator: Adobe Illustrator 18.1.1, SVG Export Plug-In . SVG Version: 6.00 Build 0)  -->
<svg version="1.1" id="Logo" xmlns="http://www.w3.org/2000/svg" xmlns:xlink="http://www.w3.org/1999/xlink" x="0px" y="0px"
	 viewBox="20 114 560 560" enable-background="new 20 114 560 560" xml:space="preserve">
<g id="Layer_3" display="none">
	<rect x="-73.4" y="90" display="inline" fill="#333333" width="2448" height="612"/>
</g>
<g id="Layer_3_copy" display="none">
	<rect x="-73.4" y="90" display="inline" fill="#34495E" width="2448" height="612"/>
</g>
<g display="none">
	<path display="inline" fill="#617021" d="M422.3,520.4c-1,65.3-54.1,118.3-119.3,118.3s-119.3-53-119.3-119.3
		c0-65.3,53-118.3,118.3-119.3C306,465.4,358,517.4,422.3,520.4z"/>
	<path display="inline" fill="#003E99" d="M429.4,275.6c65.3,1,118.3,54.1,118.3,119.3s-53,119.3-119.3,119.3
		c-65.3,0-118.3-53-119.3-118.3C374.3,391.9,426.4,339.9,429.4,275.6z"/>
	<path display="inline" fill="#A35D17" d="M302.9,150.2c65.3,0,119.3,53,119.3,119.3c0,65.3-53,118.3-118.3,119.3
		c-3.1-65.3-55.1-117.3-120.4-120.4C184.6,202.2,237.7,150.2,302.9,150.2z"/>
	<path display="inline" fill="#871613" d="M59.2,394c0-65.3,53-119.3,119.3-119.3c65.3,0,118.3,53,119.3,118.3
		C232.6,396,180.5,448,177.5,513.3C111.2,513.3,59.2,460.3,59.2,394z"/>
</g>
<g>
	<g>
		<path fill="#ED0303" d="M170.3,506.2c6.1-63.2,56.1-112.2,119.3-119.3c-4.1-58.1-52-104-111.2-104c-61.2,0-111.2,50-111.2,111.2
			C66.3,453.1,112.2,502.1,170.3,506.2z"/>
	</g>
	<g>
		<path fill="#ECB010" d="M191.8,261.4c63.2,6.1,112.2,56.1,119.3,119.3c58.1-4.1,104-52,104-111.2c0-61.2-50-111.2-111.2-111.2
			C244.8,157.3,195.8,203.2,191.8,261.4z"/>
	</g>
	<g>
		<path fill="#3498DB" d="M317.2,402.1c4.1,58.1,52,104,111.2,104c61.2,0,111.2-50,111.2-111.2c0-59.2-45.9-107.1-104-111.2
			C430.4,346,380.5,396,317.2,402.1z"/>
	</g>
	<g>
		<path fill="#8ABF00" d="M415.1,527.6c-63.2-6.1-112.2-56.1-119.3-119.3c-58.1,4.1-104,52-104,111.2c0,61.2,50,111.2,111.2,111.2
			C362.1,631.6,411.1,585.7,415.1,527.6z"/>
	</g>
</g>
<g id="Layer_2" display="none">
	<text transform="matrix(1 0 0 1 589.0476 491.2127)" display="inline" font-family="'Rokkitt-Bold'" font-size="367.2">PHOURUS</text>
</g>
</svg>
